<mxfile host="app.diagrams.net" modified="2022-06-28T10:43:39.204Z" agent="5.0 (Windows NT 10.0; Win64; x64) AppleWebKit/537.36 (KHTML, like Gecko) Chrome/102.0.0.0 Safari/537.36" etag="65o7pzDYlcoTU4QTqXO8" version="20.0.3" type="github">
  <diagram id="KpiHOFt_DvgRvmfZhLTP" name="Page-1">
    <mxGraphModel dx="862" dy="482" grid="1" gridSize="10" guides="1" tooltips="1" connect="1" arrows="1" fold="1" page="1" pageScale="1" pageWidth="850" pageHeight="1100" math="0" shadow="0">
      <root>
        <mxCell id="0" />
        <mxCell id="1" parent="0" />
        <mxCell id="xTLo6UolIWiuNbC8FWZd-1" value="Aktor" style="swimlane;" parent="1" vertex="1">
          <mxGeometry x="190" y="80" width="200" height="640" as="geometry" />
        </mxCell>
        <mxCell id="9sTHnTn6iUDzbu-5NO3o-1" value="" style="edgeStyle=orthogonalEdgeStyle;rounded=0;orthogonalLoop=1;jettySize=auto;html=1;entryX=0.5;entryY=0;entryDx=0;entryDy=0;" edge="1" parent="xTLo6UolIWiuNbC8FWZd-1" source="xTLo6UolIWiuNbC8FWZd-3" target="xTLo6UolIWiuNbC8FWZd-4">
          <mxGeometry relative="1" as="geometry" />
        </mxCell>
        <mxCell id="xTLo6UolIWiuNbC8FWZd-3" value="" style="ellipse;whiteSpace=wrap;html=1;aspect=fixed;fillColor=#000000;" parent="xTLo6UolIWiuNbC8FWZd-1" vertex="1">
          <mxGeometry x="85" y="30" width="30" height="30" as="geometry" />
        </mxCell>
        <mxCell id="xTLo6UolIWiuNbC8FWZd-4" value="klik tombol loker" style="rounded=1;whiteSpace=wrap;html=1;" parent="xTLo6UolIWiuNbC8FWZd-1" vertex="1">
          <mxGeometry x="40" y="100" width="120" height="60" as="geometry" />
        </mxCell>
        <mxCell id="xTLo6UolIWiuNbC8FWZd-15" value="" style="edgeStyle=orthogonalEdgeStyle;rounded=0;orthogonalLoop=1;jettySize=auto;html=1;" parent="xTLo6UolIWiuNbC8FWZd-1" source="xTLo6UolIWiuNbC8FWZd-6" target="xTLo6UolIWiuNbC8FWZd-7" edge="1">
          <mxGeometry relative="1" as="geometry" />
        </mxCell>
        <mxCell id="xTLo6UolIWiuNbC8FWZd-6" value="tampil daftar loker" style="rounded=1;whiteSpace=wrap;html=1;" parent="xTLo6UolIWiuNbC8FWZd-1" vertex="1">
          <mxGeometry x="40" y="180" width="120" height="60" as="geometry" />
        </mxCell>
        <mxCell id="xTLo6UolIWiuNbC8FWZd-7" value="pilih salah satu daftar loker dan klik detail" style="rounded=1;whiteSpace=wrap;html=1;" parent="xTLo6UolIWiuNbC8FWZd-1" vertex="1">
          <mxGeometry x="40" y="280" width="120" height="60" as="geometry" />
        </mxCell>
        <mxCell id="xTLo6UolIWiuNbC8FWZd-12" value="klik tombol apply" style="rounded=1;whiteSpace=wrap;html=1;" parent="xTLo6UolIWiuNbC8FWZd-1" vertex="1">
          <mxGeometry x="40" y="370" width="120" height="60" as="geometry" />
        </mxCell>
        <mxCell id="xTLo6UolIWiuNbC8FWZd-14" value="" style="ellipse;html=1;shape=endState;fillColor=#000000;strokeColor=#000000;" parent="xTLo6UolIWiuNbC8FWZd-1" vertex="1">
          <mxGeometry x="70" y="560" width="30" height="30" as="geometry" />
        </mxCell>
        <mxCell id="xTLo6UolIWiuNbC8FWZd-2" value="Sistem" style="swimlane;" parent="1" vertex="1">
          <mxGeometry x="390" y="80" width="210" height="640" as="geometry" />
        </mxCell>
        <mxCell id="xTLo6UolIWiuNbC8FWZd-5" value="menampilkan daftar loker" style="rounded=1;whiteSpace=wrap;html=1;" parent="xTLo6UolIWiuNbC8FWZd-2" vertex="1">
          <mxGeometry x="40" y="100" width="120" height="60" as="geometry" />
        </mxCell>
        <mxCell id="xTLo6UolIWiuNbC8FWZd-11" value="menampilkan deskripsi loker yang bersangkutan" style="rounded=1;whiteSpace=wrap;html=1;" parent="xTLo6UolIWiuNbC8FWZd-2" vertex="1">
          <mxGeometry x="60" y="280" width="120" height="60" as="geometry" />
        </mxCell>
        <mxCell id="xTLo6UolIWiuNbC8FWZd-24" value="" style="edgeStyle=orthogonalEdgeStyle;rounded=0;orthogonalLoop=1;jettySize=auto;html=1;entryX=0.875;entryY=1.033;entryDx=0;entryDy=0;entryPerimeter=0;" parent="xTLo6UolIWiuNbC8FWZd-2" source="xTLo6UolIWiuNbC8FWZd-8" target="xTLo6UolIWiuNbC8FWZd-11" edge="1">
          <mxGeometry relative="1" as="geometry">
            <mxPoint x="195" y="570" as="targetPoint" />
            <Array as="points">
              <mxPoint x="165" y="570" />
            </Array>
          </mxGeometry>
        </mxCell>
        <mxCell id="xTLo6UolIWiuNbC8FWZd-8" value="" style="rhombus;whiteSpace=wrap;html=1;" parent="xTLo6UolIWiuNbC8FWZd-2" vertex="1">
          <mxGeometry x="35" y="530" width="80" height="80" as="geometry" />
        </mxCell>
        <mxCell id="xTLo6UolIWiuNbC8FWZd-20" value="" style="edgeStyle=orthogonalEdgeStyle;rounded=0;orthogonalLoop=1;jettySize=auto;html=1;" parent="xTLo6UolIWiuNbC8FWZd-2" source="xTLo6UolIWiuNbC8FWZd-13" target="xTLo6UolIWiuNbC8FWZd-8" edge="1">
          <mxGeometry relative="1" as="geometry" />
        </mxCell>
        <mxCell id="xTLo6UolIWiuNbC8FWZd-13" value="menampilkan formulir deskripsi tentang diri anda" style="rounded=1;whiteSpace=wrap;html=1;" parent="xTLo6UolIWiuNbC8FWZd-2" vertex="1">
          <mxGeometry x="15" y="440" width="120" height="60" as="geometry" />
        </mxCell>
        <mxCell id="xTLo6UolIWiuNbC8FWZd-25" value="cancel" style="text;html=1;strokeColor=none;fillColor=none;align=center;verticalAlign=middle;whiteSpace=wrap;rounded=0;" parent="xTLo6UolIWiuNbC8FWZd-2" vertex="1">
          <mxGeometry x="100" y="540" width="60" height="30" as="geometry" />
        </mxCell>
        <mxCell id="xTLo6UolIWiuNbC8FWZd-26" value="submit" style="text;html=1;strokeColor=none;fillColor=none;align=center;verticalAlign=middle;whiteSpace=wrap;rounded=0;" parent="xTLo6UolIWiuNbC8FWZd-2" vertex="1">
          <mxGeometry x="-10" y="540" width="60" height="30" as="geometry" />
        </mxCell>
        <mxCell id="xTLo6UolIWiuNbC8FWZd-9" value="" style="edgeStyle=orthogonalEdgeStyle;rounded=0;orthogonalLoop=1;jettySize=auto;html=1;" parent="1" source="xTLo6UolIWiuNbC8FWZd-4" target="xTLo6UolIWiuNbC8FWZd-5" edge="1">
          <mxGeometry relative="1" as="geometry" />
        </mxCell>
        <mxCell id="xTLo6UolIWiuNbC8FWZd-10" value="" style="edgeStyle=orthogonalEdgeStyle;rounded=0;orthogonalLoop=1;jettySize=auto;html=1;entryX=1;entryY=0.5;entryDx=0;entryDy=0;" parent="1" source="xTLo6UolIWiuNbC8FWZd-5" target="xTLo6UolIWiuNbC8FWZd-6" edge="1">
          <mxGeometry relative="1" as="geometry">
            <Array as="points">
              <mxPoint x="480" y="290" />
            </Array>
          </mxGeometry>
        </mxCell>
        <mxCell id="xTLo6UolIWiuNbC8FWZd-16" value="" style="edgeStyle=orthogonalEdgeStyle;rounded=0;orthogonalLoop=1;jettySize=auto;html=1;" parent="1" source="xTLo6UolIWiuNbC8FWZd-7" target="xTLo6UolIWiuNbC8FWZd-11" edge="1">
          <mxGeometry relative="1" as="geometry" />
        </mxCell>
        <mxCell id="xTLo6UolIWiuNbC8FWZd-18" value="" style="edgeStyle=orthogonalEdgeStyle;rounded=0;orthogonalLoop=1;jettySize=auto;html=1;entryX=1;entryY=0.5;entryDx=0;entryDy=0;" parent="1" source="xTLo6UolIWiuNbC8FWZd-11" target="xTLo6UolIWiuNbC8FWZd-12" edge="1">
          <mxGeometry relative="1" as="geometry">
            <mxPoint x="510" y="500" as="targetPoint" />
            <Array as="points">
              <mxPoint x="470" y="480" />
            </Array>
          </mxGeometry>
        </mxCell>
        <mxCell id="xTLo6UolIWiuNbC8FWZd-19" value="" style="edgeStyle=orthogonalEdgeStyle;rounded=0;orthogonalLoop=1;jettySize=auto;html=1;entryX=0;entryY=0.5;entryDx=0;entryDy=0;" parent="1" source="xTLo6UolIWiuNbC8FWZd-12" target="xTLo6UolIWiuNbC8FWZd-13" edge="1">
          <mxGeometry relative="1" as="geometry">
            <Array as="points">
              <mxPoint x="290" y="550" />
            </Array>
          </mxGeometry>
        </mxCell>
        <mxCell id="xTLo6UolIWiuNbC8FWZd-22" value="" style="edgeStyle=orthogonalEdgeStyle;rounded=0;orthogonalLoop=1;jettySize=auto;html=1;" parent="1" source="xTLo6UolIWiuNbC8FWZd-8" edge="1">
          <mxGeometry relative="1" as="geometry">
            <mxPoint x="290" y="650" as="targetPoint" />
          </mxGeometry>
        </mxCell>
      </root>
    </mxGraphModel>
  </diagram>
</mxfile>
